<?xml version="1.0" encoding="UTF-8" standalone="no"?>
<!-- Created with Inkscape (http://www.inkscape.org/) -->

<svg
   width="210mm"
   height="297mm"
   viewBox="0 0 210 297"
   version="1.1"
   id="svg1175"
   inkscape:version="1.1.1 (3bf5ae0d25, 2021-09-20)"
   sodipodi:docname="logo-crablock.svg"
   xmlns:inkscape="http://www.inkscape.org/namespaces/inkscape"
   xmlns:sodipodi="http://sodipodi.sourceforge.net/DTD/sodipodi-0.dtd"
   xmlns="http://www.w3.org/2000/svg"
   xmlns:svg="http://www.w3.org/2000/svg">
  <sodipodi:namedview
     id="namedview1177"
     pagecolor="#ffffff"
     bordercolor="#666666"
     borderopacity="1.0"
     inkscape:pageshadow="2"
     inkscape:pageopacity="0.0"
     inkscape:pagecheckerboard="0"
     inkscape:document-units="mm"
     showgrid="false"
     inkscape:zoom="0.72337262"
     inkscape:cx="397.44385"
     inkscape:cy="451.35798"
     inkscape:window-width="1920"
     inkscape:window-height="1001"
     inkscape:window-x="-9"
     inkscape:window-y="-9"
     inkscape:window-maximized="1"
     inkscape:current-layer="layer1" />
  <defs
     id="defs1172" />
  <g
     inkscape:label="Layer 1"
     inkscape:groupmode="layer"
     id="layer1">
    <path
       id="path142"
       style="fill:#008890;fill-opacity:1;fill-rule:evenodd;stroke:#004c50;stroke-width:2.12741;stroke-miterlimit:4;stroke-dasharray:none;stroke-opacity:1"
       d="M 91.962176,41.657654 A 14.479347,14.458278 0 0 0 77.488222,56.115882 14.479347,14.458278 0 0 0 90.070916,70.449494 c 0.0668,1.993227 -0.282665,4.733645 2.864207,9.818845 -5.86139,2.388717 -11.181027,6.634669 -14.716558,11.696247 -3.296769,-0.949682 -5.608854,-2.661875 -7.106709,-5.004711 4.394927,-4.849752 5.662739,-12.630648 -2.838955,-20.970915 l 0.420696,7.352961 -8.570698,-1.602509 -1.085441,9.778195 -7.985116,-15.363734 7.943664,-0.418498 -0.481856,-7.093509 7.715016,-2.141973 c -3.744139,-2.959825 -8.038025,-4.374389 -12.160889,-4.425669 -9.070222,-0.112944 -17.312752,6.373631 -17.05418,17.527288 1.479361,14.057982 15.24286,22.066883 22.319079,22.398619 2.343221,0.234218 4.98092,-0.378402 7.393995,-1.651637 2.358902,4.752555 5.228398,6.672502 8.220781,7.911436 -0.987778,2.82701 -1.384458,5.75961 -1.023532,8.65978 0.175926,1.41197 0.465399,2.77022 0.864092,4.06917 -15.087777,0.16198 -14.155328,12.38125 -13.359569,18.21335 2.513906,-2.48297 4.636731,-5.46895 9.657633,-4.72696 -2.114363,8.66856 1.902946,13.99245 6.861165,17.44348 2.05e-4,-4.34349 0.636964,-7.42669 1.241941,-10.57236 2.448619,-3.07885 5.889841,-4.70673 9.345046,-6.31449 5.069396,1.90347 11.379958,2.64591 18.842112,1.92685 3.68567,-0.35515 7.16366,-1.2656 10.32165,-2.59196 4.3536,2.20638 9.14912,3.76722 12.30086,7.7301 0.60499,3.14573 1.24171,6.22888 1.24193,10.57234 4.95827,-3.45097 8.97517,-8.77492 6.86083,-17.44345 5.0209,-0.74199 7.14406,2.244 9.65799,4.72696 0.82414,-6.04045 1.79678,-18.93419 -15.03685,-18.18516 l -0.80476,0.64387 c 2.41036,-4.21677 3.19591,-8.85812 1.77291,-13.236104 -0.14703,-0.45291 -0.30816,-0.902142 -0.47783,-1.348519 3.64254,-1.262789 7.22027,-2.88438 10.05923,-8.604076 2.41313,1.273223 5.0508,1.885781 7.39402,1.651587 7.07628,-0.331697 20.8397,-8.340599 22.31908,-22.398568 0.2586,-11.153671 -7.98388,-17.640196 -17.05418,-17.527301 -4.12286,0.05131 -8.41671,1.465857 -12.16089,4.425694 l 7.71504,2.141949 -0.4819,7.093496 7.94372,0.418498 -7.98516,15.363746 -1.08544,-9.77817 -8.57071,1.602509 0.42072,-7.352986 c -8.50175,8.340266 -7.2339,16.121164 -2.83895,20.970914 -1.78738,2.795637 -4.73566,4.692368 -9.13139,5.467883 -3.45943,-4.955019 -8.47028,-9.004155 -14.63009,-11.247655 3.68158,-4.667822 3.35393,-7.352138 3.82914,-9.264407 a 14.465581,14.458444 0 0 0 14.09101,-14.453484 14.465581,14.458444 0 0 0 -14.4659,-14.45856 14.465581,14.458444 0 0 0 -13.25329,8.664908 14.479347,14.458278 0 0 0 -13.360294,-8.88515 14.479347,14.458278 0 0 0 -0.0051,0 z m 24.599924,6.238579 h 4.24176 v 5.5632 h 5.56319 v 4.242089 h -5.56319 v 5.56284 h -4.24176 v -5.56284 h -5.56319 v -4.242089 h 5.56319 z m -32.581352,5.5632 h 15.3681 v 4.242089 h -15.3681 z m 21.252702,8.450136 a 14.465581,14.458444 0 0 0 7.20893,7.518602 c -0.027,0.05512 -0.0529,0.112206 -0.0763,0.172578 0.46311,3.327879 -0.84862,5.872909 -3.28125,8.914415 -2.56109,-0.389634 -5.2655,-0.486424 -8.09215,-0.243249 -0.81805,0.07037 -1.636381,0.182631 -2.451918,0.334232 -1.82686,-3.159311 -2.680661,-5.760431 -1.859771,-8.819901 a 14.479347,14.458278 0 0 0 8.552409,-7.876628 z m 0.0569,22.413997 a 9.5075969,9.5075969 0 0 1 9.50771,9.507719 9.5075969,9.5075969 0 0 1 -4.80791,8.264365 c 0.16819,3.81905 0.6676,8.16262 1.73664,13.40941 -4.16589,1.78628 -8.94706,1.80235 -14.334347,0.075 1.173308,-4.77059 2.126241,-9.35782 2.807417,-13.71911 a 9.5075969,9.5075969 0 0 1 -4.41689,-8.02979 9.5075969,9.5075969 0 0 1 9.50738,-9.50773 z"
       inkscape:export-xdpi="96.099998"
       inkscape:export-ydpi="96.099998" />
  </g>
</svg>
